<svg id="Layer_1" data-name="Layer 1" xmlns="http://www.w3.org/2000/svg" viewBox="0 0 1125 2436">
  <defs>
    <style>
      .cls-1 {
        stroke: #000;
        stroke-miterlimit: 10;
      }

      .cls-2 {
        fill: #fff;
      }
    </style>
  </defs>
  <g id="Background">
    <rect id="Background-2" data-name="Background" class="cls-1" x="3.87" y="-1.14" width="1121.64" height="2438.46"/>
    <path class="cls-2" d="M979.77,1452.5a1.5,1.5,0,0,0,0-3,1.5,1.5,0,0,0,0,3Z"/>
    <path class="cls-2" d="M428.06,1564.4a1.5,1.5,0,0,0,0-3,1.5,1.5,0,0,0,0,3Z"/>
    <path class="cls-2" d="M321.36,1241.7a1.5,1.5,0,0,0,0-3,1.5,1.5,0,0,0,0,3Z"/>
    <path class="cls-2" d="M521.75,1340.6a1.5,1.5,0,0,0,0-3,1.5,1.5,0,0,0,0,3Z"/>
    <path class="cls-2" d="M664.88,1475.92a1.5,1.5,0,0,0,0-3,1.5,1.5,0,0,0,0,3Z"/>
    <path class="cls-2" d="M331.77,1928.74a1.5,1.5,0,0,0,0-3,1.5,1.5,0,0,0,0,3Z"/>
    <path class="cls-2" d="M610.23,2056.26a1.5,1.5,0,0,0,0-3,1.5,1.5,0,0,0,0,3Z"/>
    <path class="cls-2" d="M857.46,2113.51a1.5,1.5,0,0,0,0-3,1.5,1.5,0,0,0,0,3Z"/>
    <path class="cls-2" d="M774.18,1835.05a1.5,1.5,0,0,0,0-3,1.5,1.5,0,0,0,0,3Z"/>
    <path class="cls-2" d="M766.37,1655.49a1.5,1.5,0,0,0,0-3,1.5,1.5,0,0,0,0,3Z"/>
    <path class="cls-2" d="M766.37,1652.89a1.5,1.5,0,0,0,0-3,1.5,1.5,0,0,0,0,3Z"/>
    <path class="cls-2" d="M891.29,1244.31a1.5,1.5,0,0,0,0-3,1.5,1.5,0,0,0,0,3Z"/>
    <path class="cls-2" d="M969.36,1140.21a1.5,1.5,0,0,0,0-3,1.5,1.5,0,0,0,0,3Z"/>
    <path class="cls-2" d="M641.46,1163.63a1.5,1.5,0,0,0,0-3,1.5,1.5,0,0,0,0,3Z"/>
    <path class="cls-2" d="M173,1059.54a1.5,1.5,0,0,0,0-3,1.5,1.5,0,0,0,0,3Z"/>
    <path class="cls-2" d="M97.55,164.31a1.5,1.5,0,0,0,0-3,1.5,1.5,0,0,0,0,3Z"/>
    <path class="cls-2" d="M170.42,159.1a1.5,1.5,0,0,0,0-3,1.5,1.5,0,0,0,0,3Z"/>
    <path class="cls-2" d="M914.71,94h13a1.5,1.5,0,0,0,0-3h-13a1.5,1.5,0,0,0,0,3Z"/>
    <path class="cls-2" d="M1031.82,148.69a1.5,1.5,0,0,0,0-3,1.5,1.5,0,0,0,0,3Z"/>
    <path class="cls-2" d="M1091.67,286.62a1.5,1.5,0,0,0,0-3,1.5,1.5,0,0,0,0,3Z"/>
    <path class="cls-2" d="M105.36,65.42a1.5,1.5,0,0,0,0-3,1.5,1.5,0,0,0,0,3Z"/>
    <path class="cls-2" d="M48.11,70.62a1.5,1.5,0,0,0,0-3,1.5,1.5,0,0,0,0,3Z"/>
    <path class="cls-2" d="M74.13,247.58a1.5,1.5,0,0,0,0-3,1.5,1.5,0,0,0,0,3Z"/>
    <path class="cls-2" d="M292.73,73.22a1.5,1.5,0,0,0,0-3,1.5,1.5,0,0,0,0,3Z"/>
    <path class="cls-2" d="M870.47,146.09a1.5,1.5,0,0,0,0-3,1.5,1.5,0,0,0,0,3Z"/>
    <path class="cls-2" d="M1026.61,273.61a1.5,1.5,0,0,0,0-3,1.5,1.5,0,0,0,0,3Z"/>
    <path class="cls-2" d="M1057.84,939.83a1.5,1.5,0,0,0,0-3,1.5,1.5,0,0,0,0,3Z"/>
    <path class="cls-2" d="M225.07,1275.54a1.5,1.5,0,0,0,0-3,1.5,1.5,0,0,0,0,3Z"/>
    <path class="cls-2" d="M121,960.64a1.5,1.5,0,0,0,0-3,1.5,1.5,0,0,0,0,3Z"/>
    <path class="cls-2" d="M110.57,1343.2a1.5,1.5,0,0,0,0-3,1.5,1.5,0,0,0,0,3Z"/>
    <path class="cls-2" d="M89.75,1777.8a1.5,1.5,0,0,0,0-3,1.5,1.5,0,0,0,0,3Z"/>
    <path class="cls-2" d="M193.84,2152.55a1.5,1.5,0,0,0,0-3,1.5,1.5,0,0,0,0,3Z"/>
    <path class="cls-2" d="M436.27,2228l10.41-2.6a1.5,1.5,0,0,0-.8-2.89l-10.41,2.6a1.5,1.5,0,1,0,.8,2.89Z"/>
    <path class="cls-2" d="M692.2,2227.28l5.2-7.81a1.51,1.51,0,0,0-.53-2,1.55,1.55,0,0,0-2.06.53l-5.2,7.81a1.5,1.5,0,0,0,.54,2,1.54,1.54,0,0,0,2.05-.53Z"/>
    <path class="cls-2" d="M670.08,1702.33a1.5,1.5,0,0,0,0-3,1.5,1.5,0,0,0,0,3Z"/>
    <path class="cls-2" d="M108,1634.67a1.5,1.5,0,0,0,0-3,1.5,1.5,0,0,0,0,3Z"/>
    <path class="cls-2" d="M441.07,1382.23a1.5,1.5,0,0,0,0-3,1.5,1.5,0,0,0,0,3Z"/>
    <path class="cls-2" d="M815.82,1442.09a1.5,1.5,0,0,0,0-3,1.5,1.5,0,0,0,0,3Z"/>
    <path class="cls-2" d="M948.54,1704.93a1.5,1.5,0,0,0,0-3,1.5,1.5,0,0,0,0,3Z"/>
    <path class="cls-2" d="M959,1941.75a1.5,1.5,0,0,0,0-3,1.5,1.5,0,0,0,0,3Z"/>
    <path class="cls-2" d="M987.58,2181.17a1.5,1.5,0,0,0,0-3,1.5,1.5,0,0,0,0,3Z"/>
    <path class="cls-2" d="M1063.05,2342.52a1.5,1.5,0,0,0,0-3,1.5,1.5,0,0,0,0,3Z"/>
    <path class="cls-2" d="M659.67,2295.68a1.5,1.5,0,0,0,0-3,1.5,1.5,0,0,0,0,3Z"/>
    <path class="cls-2" d="M342.18,2254a1.5,1.5,0,0,0,0-3,1.5,1.5,0,0,0,0,3Z"/>
    <path class="cls-2" d="M191.24,1431a6,6,0,1,0-6-6,6.06,6.06,0,0,0,6,6Z"/>
    <path class="cls-2" d="M802.81,1352.9a6,6,0,1,0-6-6,6.07,6.07,0,0,0,6,6Z"/>
    <path class="cls-2" d="M964.16,1152.52a6,6,0,1,0-6-6,6.07,6.07,0,0,0,6,6Z"/>
    <path class="cls-2" d="M214.66,2269a6,6,0,1,0-6-6,6.06,6.06,0,0,0,6,6Z"/>
    <path class="cls-2" d="M481.75,1754.52l5.2-5.21a4.38,4.38,0,0,0,1.24-1.93,4.46,4.46,0,0,0,.52-2.31,4.51,4.51,0,0,0-.52-2.31,4.43,4.43,0,0,0-1.24-1.93l-1.21-.94a6.09,6.09,0,0,0-3-.82l-1.59.22a6,6,0,0,0-2.65,1.54l-5.21,5.2A4.56,4.56,0,0,0,472,1748a5.49,5.49,0,0,0,0,4.62,4.52,4.52,0,0,0,1.24,1.93l1.22.94a6,6,0,0,0,3,.82l1.59-.22a6,6,0,0,0,2.65-1.54Z"/>
    <path class="cls-2" d="M792.4,2373.05a6,6,0,1,0-6-6,6.07,6.07,0,0,0,6,6Z"/>
    <path class="cls-2" d="M376,2362.64a6,6,0,1,0-6-6,6.06,6.06,0,0,0,6,6Z"/>
    <path class="cls-2" d="M1065.65,1717.24a6,6,0,1,0-6-6,6.06,6.06,0,0,0,6,6Z"/>
    <path class="cls-2" d="M222.47,1027.6a6,6,0,1,0-6-6,6.06,6.06,0,0,0,6,6Z"/>
    <path class="cls-2" d="M865.27,1925.43a6,6,0,1,0-6-6,6.08,6.08,0,0,0,6,6Z"/>
    <path class="cls-2" d="M982.37,2318.4a6,6,0,1,0-6-6,6.06,6.06,0,0,0,6,6Z"/>
    <path class="cls-2" d="M154.81,1915a6,6,0,1,0-6-6,6.07,6.07,0,0,0,6,6Z"/>
  </g>
</svg>
